<?xml version="1.0" encoding="UTF-8"?>
<svg width="44px" height="43px" viewBox="0 0 44 43" version="1.1" xmlns="http://www.w3.org/2000/svg" xmlns:xlink="http://www.w3.org/1999/xlink">
    <!-- Generator: Sketch 55.1 (78136) - https://sketchapp.com -->
    <title>icons/delete</title>
    <desc>Created with Sketch.</desc>
    <defs>
        <path d="M18.5581271,20.6960546 C18.5299624,21.0781893 18.1799153,21.375 17.75664,21.375 C17.2923247,21.375 16.9245741,21.0191188 16.9559576,20.5990624 L17.6536376,11.1157041 C17.6818024,10.7335694 18.0318494,10.4360294 18.45432,10.4360294 C18.91944,10.4360294 19.2863859,10.7926399 19.2558071,11.2126963 L18.5581271,20.6960546 Z M14.4847059,20.6457353 C14.4847059,21.0490187 14.1241976,21.375 13.68,21.375 C13.2358024,21.375 12.8752941,21.0490187 12.8752941,20.6457353 L12.8752941,11.1652941 C12.8752941,10.76274 13.2358024,10.4360294 13.68,10.4360294 C14.1241976,10.4360294 14.4847059,10.76274 14.4847059,11.1652941 L14.4847059,20.6457353 Z M9.54944471,21.375 C9.12697412,21.375 8.77612235,21.0781893 8.74795765,20.6960546 L8.05027765,11.2126963 C8.01969882,10.7926399 8.38744941,10.4360294 8.85176471,10.4360294 C9.27423529,10.4360294 9.62508706,10.7335694 9.65325176,11.1157041 L10.3501271,20.5990624 C10.3815106,21.0191188 10.01376,21.375 9.54944471,21.375 L9.54944471,21.375 Z M24.9458824,6.06044118 L21.5218588,6.06044118 L20.1176471,6.06044118 L20.1176471,3.87264706 C20.1176471,3.06753882 19.3966306,2.41411765 18.5082353,2.41411765 L8.85176471,2.41411765 C7.96256471,2.41411765 7.24235294,3.06753882 7.24235294,3.87264706 L7.24235294,6.06044118 L5.83814118,6.06044118 L2.41411765,6.06044118 C1.52491765,6.06044118 0.804705882,6.71386235 0.804705882,7.51897059 C0.804705882,8.32480809 1.52491765,8.9775 2.41411765,8.9775 L3.50208,8.9775 L5.46878118,23.8238709 C5.61362824,24.9221435 6.64445647,25.7505882 7.86519529,25.7505882 L19.4948047,25.7505882 C20.7155435,25.7505882 21.7455671,24.9221435 21.8912188,23.8238709 L23.8571153,8.9775 L24.9458824,8.9775 C25.8342776,8.9775 26.5552941,8.32480809 26.5552941,7.51897059 C26.5552941,6.71386235 25.8342776,6.06044118 24.9458824,6.06044118 L24.9458824,6.06044118 Z" id="path-1"></path>
        <filter x="-58.3%" y="-64.3%" width="216.5%" height="228.6%" filterUnits="objectBoundingBox" id="filter-2">
            <feOffset dx="0" dy="0" in="SourceAlpha" result="shadowOffsetOuter1"></feOffset>
            <feGaussianBlur stdDeviation="5" in="shadowOffsetOuter1" result="shadowBlurOuter1"></feGaussianBlur>
            <feColorMatrix values="0 0 0 0 0   0 0 0 0 0   0 0 0 0 0  0 0 0 0.2 0" type="matrix" in="shadowBlurOuter1"></feColorMatrix>
        </filter>
    </defs>
    <g id="---Создание-контента" stroke="none" stroke-width="1" fill="none" fill-rule="evenodd">
        <g id="V16_create_CC_2_video_1.2-Copy" transform="translate(-355.000000, -349.000000)">
            <g id="icons/delete" transform="translate(363.000000, 356.000000)">
                <g id="Fill-1">
                    <use fill="black" fill-opacity="1" filter="url(#filter-2)" xlink:href="#path-1"></use>
                    <use fill="#FFFFFF" fill-rule="evenodd" xlink:href="#path-1"></use>
                </g>
            </g>
        </g>
    </g>
</svg>